<svg id="visual" viewBox="0 0 900 600" width="900" height="600" xmlns="http://www.w3.org/2000/svg" xmlns:xlink="http://www.w3.org/1999/xlink" version="1.1"><rect width="900" height="600" fill="#001829"></rect><g><g transform="translate(484 577)"><path d="M0 -42.9L33.6 -26.8L41.9 9.6L18.6 38.7L-18.6 38.7L-41.9 9.6L-33.6 -26.8Z" fill="none" stroke="#FF0066" stroke-width="3"></path></g><g transform="translate(258 331)"><path d="M0 -10L7.8 -6.2L9.7 2.2L4.3 9L-4.3 9L-9.7 2.2L-7.8 -6.2Z" fill="none" stroke="#FF0066" stroke-width="3"></path></g><g transform="translate(881 276)"><path d="M0 -11L8.6 -6.9L10.7 2.4L4.8 9.9L-4.8 9.9L-10.7 2.4L-8.6 -6.9Z" fill="none" stroke="#FF0066" stroke-width="3"></path></g><g transform="translate(192 396)"><path d="M0 -34L26.6 -21.2L33.1 7.6L14.8 30.6L-14.8 30.6L-33.1 7.6L-26.6 -21.2Z" stroke="#FF0066" fill="none" stroke-width="3"></path></g><g transform="translate(410 262)"><path d="M0 -24L18.8 -15L23.4 5.3L10.4 21.6L-10.4 21.6L-23.4 5.3L-18.8 -15Z" stroke="#FF0066" fill="none" stroke-width="3"></path></g><g transform="translate(239 163)"><path d="M0 -31L24.2 -19.3L30.2 6.9L13.5 27.9L-13.5 27.9L-30.2 6.9L-24.2 -19.3Z" stroke="#FF0066" fill="none" stroke-width="3"></path></g><g transform="translate(33 453)"><path d="M0 -32L25 -20L31.2 7.1L13.9 28.8L-13.9 28.8L-31.2 7.1L-25 -20Z" stroke="#FF0066" fill="none" stroke-width="3"></path></g><g transform="translate(578 302)"><path d="M0 -35L27.4 -21.8L34.1 7.8L15.2 31.5L-15.2 31.5L-34.1 7.8L-27.4 -21.8Z" stroke="#FF0066" fill="none" stroke-width="3"></path></g><g transform="translate(736 489)"><path d="M0 -40L31.3 -24.9L39 8.9L17.4 36L-17.4 36L-39 8.9L-31.3 -24.9Z" stroke="#FF0066" fill="none" stroke-width="3"></path></g><g transform="translate(589 522)"><path d="M0 -24L18.8 -15L23.4 5.3L10.4 21.6L-10.4 21.6L-23.4 5.3L-18.8 -15Z" stroke="#FF0066" fill="none" stroke-width="3"></path></g><g transform="translate(480 113)"><path d="M0 -16L12.5 -10L15.6 3.6L6.9 14.4L-6.9 14.4L-15.6 3.6L-12.5 -10Z" stroke="#FF0066" fill="none" stroke-width="3"></path></g><g transform="translate(186 264)"><path d="M0 -20L15.6 -12.5L19.5 4.5L8.7 18L-8.7 18L-19.5 4.5L-15.6 -12.5Z" stroke="#FF0066" fill="none" stroke-width="3"></path></g><g transform="translate(336 164)"><path d="M0 -12L9.4 -7.5L11.7 2.7L5.2 10.8L-5.2 10.8L-11.7 2.7L-9.4 -7.5Z" stroke="#FF0066" fill="none" stroke-width="3"></path></g><g transform="translate(414 50)"><path d="M0 -33L25.8 -20.6L32.2 7.3L14.3 29.7L-14.3 29.7L-32.2 7.3L-25.8 -20.6Z" stroke="#FF0066" fill="none" stroke-width="3"></path></g><g transform="translate(120 450)"><path d="M0 -39L30.5 -24.3L38 8.7L16.9 35.1L-16.9 35.1L-38 8.7L-30.5 -24.3Z" stroke="#FF0066" fill="none" stroke-width="3"></path></g><g transform="translate(545 28)"><path d="M0 -31L24.2 -19.3L30.2 6.9L13.5 27.9L-13.5 27.9L-30.2 6.9L-24.2 -19.3Z" stroke="#FF0066" fill="none" stroke-width="3"></path></g><g transform="translate(274 590)"><path d="M0 -25L19.5 -15.6L24.4 5.6L10.8 22.5L-10.8 22.5L-24.4 5.6L-19.5 -15.6Z" stroke="#FF0066" fill="none" stroke-width="3"></path></g><g transform="translate(685 201)"><path d="M0 -21L16.4 -13.1L20.5 4.7L9.1 18.9L-9.1 18.9L-20.5 4.7L-16.4 -13.1Z" stroke="#FF0066" fill="none" stroke-width="3"></path></g><g transform="translate(793 178)"><path d="M0 -33L25.8 -20.6L32.2 7.3L14.3 29.7L-14.3 29.7L-32.2 7.3L-25.8 -20.6Z" stroke="#FF0066" fill="none" stroke-width="3"></path></g><g transform="translate(169 575)"><path d="M0 -40L31.3 -24.9L39 8.9L17.4 36L-17.4 36L-39 8.9L-31.3 -24.9Z" stroke="#FF0066" fill="none" stroke-width="3"></path></g><g transform="translate(39 161)"><path d="M0 -14L10.9 -8.7L13.6 3.1L6.1 12.6L-6.1 12.6L-13.6 3.1L-10.9 -8.7Z" stroke="#FF0066" fill="none" stroke-width="3"></path></g><g transform="translate(746 11)"><path d="M0 -40L31.3 -24.9L39 8.9L17.4 36L-17.4 36L-39 8.9L-31.3 -24.9Z" stroke="#FF0066" fill="none" stroke-width="3"></path></g><g transform="translate(655 405)"><path d="M0 -15L11.7 -9.4L14.6 3.3L6.5 13.5L-6.5 13.5L-14.6 3.3L-11.7 -9.4Z" stroke="#FF0066" fill="none" stroke-width="3"></path></g><g transform="translate(218 494)"><path d="M0 -40L31.3 -24.9L39 8.9L17.4 36L-17.4 36L-39 8.9L-31.3 -24.9Z" stroke="#FF0066" fill="none" stroke-width="3"></path></g><g transform="translate(787 407)"><path d="M0 -10L7.8 -6.2L9.7 2.2L4.3 9L-4.3 9L-9.7 2.2L-7.8 -6.2Z" stroke="#FF0066" fill="none" stroke-width="3"></path></g><g transform="translate(642 85)"><path d="M0 -36L28.1 -22.4L35.1 8L15.6 32.4L-15.6 32.4L-35.1 8L-28.1 -22.4Z" stroke="#FF0066" fill="none" stroke-width="3"></path></g><g transform="translate(179 36)"><path d="M0 -39L30.5 -24.3L38 8.7L16.9 35.1L-16.9 35.1L-38 8.7L-30.5 -24.3Z" stroke="#FF0066" fill="none" stroke-width="3"></path></g><g transform="translate(531 186)"><path d="M0 -30L23.5 -18.7L29.2 6.7L13 27L-13 27L-29.2 6.7L-23.5 -18.7Z" stroke="#FF0066" fill="none" stroke-width="3"></path></g><g transform="translate(830 536)"><path d="M0 -17L13.3 -10.6L16.6 3.8L7.4 15.3L-7.4 15.3L-16.6 3.8L-13.3 -10.6Z" stroke="#FF0066" fill="none" stroke-width="3"></path></g><g transform="translate(411 492)"><path d="M0 -35L27.4 -21.8L34.1 7.8L15.2 31.5L-15.2 31.5L-34.1 7.8L-27.4 -21.8Z" stroke="#FF0066" fill="none" stroke-width="3"></path></g></g></svg>